# xmcd
#
# Track frame offsets: 
#        182
#        28162
#        53162
#        75032
#        101077
#        128447
#        148307
#        162125
#        183700
#
# Disc length: 2708 seconds
#
# Revision: 8
# Processed by: cddbd v1.5.2PL0 Copyright (c) Steve Scherf et al.
# Submitted via: ExactAudioCopy v1.0b3
#
DISCID=700a9209
DTITLE=Walter 'Wolfman' Washington - Wolf at the Door
DYEAR=1991
DGENRE=Blues
TTITLE0=Hello Stranger
TTITLE1=Is It Something You've Got \\ I Had It All the Time
TTITLE2=I Want to Know
TTITLE3=Peepin'
TTITLE4=It Doesn't Really Matter
TTITLE5=Heatin' It Up
TTITLE6=Tailspin
TTITLE7=At Night in the City
TTITLE8=Don't Say Goodbye
EXTD=\n
EXTT0=
EXTT1=
EXTT2=
EXTT3=
EXTT4=
EXTT5=
EXTT6=
EXTT7=
EXTT8=
PLAYORDER=
